<?xml version="1.0" standalone="no"?>
<!DOCTYPE svg PUBLIC "-//W3C//DTD SVG 20010904//EN"
 "http://www.w3.org/TR/2001/REC-SVG-20010904/DTD/svg10.dtd">
<svg version="1.0" xmlns="http://www.w3.org/2000/svg"
 width="1280.000000pt" height="1044.000000pt" viewBox="0 0 1280.000000 1044.000000"
 preserveAspectRatio="xMidYMid meet">
<metadata>
Created by potrace 1.15, written by Peter Selinger 2001-2017
</metadata>
<g transform="translate(0.000000,1044.000000) scale(0.100000,-0.100000)"
fill="#000000" stroke="none">
<path d="M1603 10429 c-842 -98 -1500 -759 -1592 -1601 -15 -130 -15 -2059 -1
-2183 50 -429 233 -802 542 -1100 136 -132 262 -223 420 -305 l118 -61 2 -971
3 -972 800 894 800 893 6 1016 c6 1085 6 1089 59 1366 93 481 337 969 674
1347 166 187 348 344 565 489 298 199 657 349 1004 420 263 53 234 52 1416 58
l1104 6 -51 61 c-301 362 -728 592 -1194 643 -118 13 -4564 13 -4675 0z"/>
<path d="M5280 8974 c-592 -80 -1127 -403 -1475 -889 -182 -255 -318 -576
-369 -875 -35 -202 -37 -326 -33 -1730 4 -1528 0 -1445 68 -1707 196 -764 800
-1365 1564 -1558 271 -68 153 -65 2464 -65 l2086 0 944 -1068 c519 -587 948
-1068 952 -1070 5 -2 9 515 9 1155 l0 1159 70 31 c38 17 117 59 175 94 563
335 939 892 1042 1543 17 102 18 226 18 1576 0 1364 -1 1473 -18 1579 -153
967 -903 1699 -1871 1826 -103 13 -441 15 -2819 14 -2273 -1 -2719 -3 -2807
-15z"/>
</g>
</svg>
