<?xml version="1.0" standalone="no"?>
<!DOCTYPE svg PUBLIC "-//W3C//DTD SVG 20010904//EN"
 "http://www.w3.org/TR/2001/REC-SVG-20010904/DTD/svg10.dtd">
<svg version="1.0" xmlns="http://www.w3.org/2000/svg"
 width="1280.000000pt" height="937.000000pt" viewBox="0 0 1280.000000 937.000000"
 preserveAspectRatio="xMidYMid meet">
<metadata>
Created by potrace 1.15, written by Peter Selinger 2001-2017
</metadata>
<g transform="translate(0.000000,937.000000) scale(0.100000,-0.100000)"
fill="#000000" stroke="none">
<path d="M6005 9364 c-535 -27 -917 -66 -1329 -135 -1997 -335 -3597 -1227
-4287 -2390 -101 -170 -232 -446 -278 -586 -249 -751 -70 -1563 474 -2140 436
-463 1073 -712 1700 -663 1009 78 1805 820 1961 1826 20 133 23 429 5 564 -28
215 -94 447 -179 632 l-40 87 76 59 c451 349 1073 572 1817 654 161 17 800 18
950 0 698 -81 1232 -259 1680 -557 61 -40 143 -101 182 -135 l73 -61 -45 -89
c-158 -316 -228 -613 -228 -970 0 -200 16 -332 59 -504 200 -801 843 -1418
1644 -1580 225 -45 510 -54 725 -22 1088 162 1876 1104 1832 2191 -9 206 -34
351 -112 647 -185 698 -717 1363 -1521 1904 -804 540 -1885 943 -3047 1134
-561 93 -1001 129 -1617 134 -234 2 -456 2 -495 0z"/>
<path d="M5965 5869 c-350 -27 -700 -85 -1034 -170 -86 -21 -163 -42 -172 -44
-14 -5 -17 -32 -22 -183 -25 -778 -407 -1501 -1046 -1983 -616 -464 -1439
-630 -2186 -440 -65 17 -123 27 -127 23 -22 -22 -189 -327 -267 -487 -375
-766 -576 -1593 -593 -2440 l-3 -140 5888 -3 5889 -2 -6 107 c-3 60 -8 164
-11 233 -35 754 -258 1590 -618 2305 -54 108 -171 322 -181 332 -2 2 -65 -13
-142 -32 -253 -65 -366 -79 -659 -79 -342 -1 -535 28 -825 124 -787 260 -1401
873 -1660 1660 -89 270 -120 454 -127 768 -3 127 -7 232 -9 232 -2 0 -54 14
-116 31 -346 94 -739 160 -1117 189 -154 11 -706 11 -856 -1z m775 -1277 c626
-127 1130 -570 1329 -1168 74 -222 86 -298 85 -564 0 -206 -3 -248 -22 -340
-119 -549 -456 -991 -942 -1235 -494 -248 -1083 -249 -1575 -3 -492 246 -827
684 -947 1238 -20 92 -22 133 -22 340 0 206 2 248 22 340 80 368 238 661 496
915 270 266 593 429 971 490 136 22 468 14 605 -13z"/>
</g>
</svg>
